<svg width="54" height="54" viewBox="0 0 54 54" fill="none" xmlns="http://www.w3.org/2000/svg">
<path d="M27.0004 34.875C24.9118 34.875 22.9088 34.0453 21.4319 32.5685C19.9551 31.0916 19.1254 29.0886 19.1254 27C19.1254 24.9114 19.9551 22.9084 21.4319 21.4315C22.9088 19.9547 24.9118 19.125 27.0004 19.125C29.089 19.125 31.092 19.9547 32.5688 21.4315C34.0457 22.9084 34.8754 24.9114 34.8754 27C34.8754 29.0886 34.0457 31.0916 32.5688 32.5685C31.092 34.0453 29.089 34.875 27.0004 34.875ZM43.7179 29.1825C43.8079 28.4625 43.8754 27.7425 43.8754 27C43.8754 26.2575 43.8079 25.515 43.7179 24.75L48.4654 21.0825C48.8929 20.745 49.0054 20.1375 48.7354 19.6425L44.2354 11.8575C43.9654 11.3625 43.3579 11.16 42.8629 11.3625L37.2604 13.6125C36.0904 12.735 34.8754 11.97 33.4579 11.4075L32.6254 5.445C32.5354 4.905 32.0629 4.5 31.5004 4.5H22.5004C21.9379 4.5 21.4654 4.905 21.3754 5.445L20.5429 11.4075C19.1254 11.97 17.9104 12.735 16.7404 13.6125L11.1379 11.3625C10.6429 11.16 10.0354 11.3625 9.76537 11.8575L5.26537 19.6425C4.97287 20.1375 5.10787 20.745 5.53537 21.0825L10.2829 24.75C10.1929 25.515 10.1254 26.2575 10.1254 27C10.1254 27.7425 10.1929 28.4625 10.2829 29.1825L5.53537 32.9175C5.10787 33.255 4.97287 33.8625 5.26537 34.3575L9.76537 42.1425C10.0354 42.6375 10.6429 42.8175 11.1379 42.6375L16.7404 40.365C17.9104 41.265 19.1254 42.03 20.5429 42.5925L21.3754 48.555C21.4654 49.095 21.9379 49.5 22.5004 49.5H31.5004C32.0629 49.5 32.5354 49.095 32.6254 48.555L33.4579 42.5925C34.8754 42.0075 36.0904 41.265 37.2604 40.365L42.8629 42.6375C43.3579 42.8175 43.9654 42.6375 44.2354 42.1425L48.7354 34.3575C49.0054 33.8625 48.8929 33.255 48.4654 32.9175L43.7179 29.1825Z" fill="#2E8A57"/>
</svg>
